<svg version="1.1" id="Layer_1" xmlns="http://www.w3.org/2000/svg" xmlns:xlink="http://www.w3.org/1999/xlink" x="0px" y="0px"
	 width="100%" viewBox="0 0 512 512" enable-background="new 0 0 512 512" xml:space="preserve">
<path fill="#010000" opacity="1.000000" stroke="none" 
	d="
M1.000000,134.000000 
	C1.000000,89.333336 1.000000,45.166668 1.000000,1.000000 
	C171.666672,1.000000 342.333344,1.000000 513.000000,1.000000 
	C513.000000,171.666672 513.000000,342.333344 513.000000,513.000000 
	C342.333344,513.000000 171.666672,513.000000 1.000000,513.000000 
	C1.000000,386.833344 1.000000,260.666656 1.000000,134.000000 
M77.324333,495.656891 
	C86.833122,500.508667 94.574486,497.313019 97.945961,486.949524 
	C111.612000,444.941772 125.219719,402.915039 138.829941,360.889160 
	C139.260269,359.560425 139.483185,358.164520 139.856506,356.570526 
	C134.830246,356.570526 130.367416,356.570526 125.006851,356.390808 
	C122.514481,356.366730 119.987747,356.595093 117.537498,356.261566 
	C113.488678,355.710449 111.808899,357.350250 110.604980,361.231384 
	C105.099548,378.979553 99.217743,396.610870 93.487068,414.289307 
	C86.528603,435.755310 79.561066,457.218445 72.650185,478.699768 
	C70.215904,486.266357 71.363770,490.463989 77.324333,495.656891 
M387.011902,356.409149 
	C383.037415,356.453308 379.062958,356.497467 374.508545,356.523926 
	C374.558014,357.207703 374.607483,357.891510 374.774597,359.302063 
	C374.994049,360.101868 375.182373,360.911743 375.437531,361.699982 
	C385.040771,391.368652 394.738739,421.007385 404.114227,450.747803 
	C404.998169,453.551819 405.067383,458.575256 403.423553,459.831329 
	C399.151276,463.095886 400.695679,466.021240 401.970734,469.538239 
	C403.077606,472.591217 403.792358,475.792755 405.005798,478.797211 
	C405.431091,479.850250 406.807343,481.210449 407.778900,481.234436 
	C412.489929,481.350739 415.004333,483.719879 416.421875,488.031677 
	C417.812866,492.262726 420.192535,495.801178 425.656616,497.290558 
	C429.990662,498.830597 433.889282,497.738007 437.395905,495.108032 
	C442.407990,491.348877 443.673279,485.908569 441.263550,478.449982 
	C429.349091,441.572510 417.401825,404.705597 405.450439,367.840057 
	C401.357605,355.215179 401.336761,355.221954 387.011902,356.409149 
M481.078552,16.023882 
	C331.450348,16.014063 181.822144,16.004011 32.193932,15.994847 
	C19.657349,15.994080 16.063194,19.544842 16.062975,31.945728 
	C16.061239,129.920609 16.061701,227.895477 16.064323,325.870361 
	C16.064363,327.369537 15.997411,328.878418 16.137411,330.366241 
	C16.724148,336.601654 20.905527,340.728302 27.138659,341.230194 
	C28.795759,341.363617 30.468117,341.334564 32.133469,341.334625 
	C180.262161,341.338806 328.390839,341.339508 476.519531,341.326660 
	C478.344147,341.326508 480.168762,341.147766 482.862671,341.258087 
	C493.936279,341.364105 497.929932,337.439056 497.930542,326.368774 
	C497.935974,227.957520 497.935608,129.546249 497.930542,31.134991 
	C497.929962,19.646013 493.584778,15.577861 481.078552,16.023882 
M326.500031,413.769409 
	C265.715820,413.769501 204.931595,413.769287 144.147369,413.771149 
	C142.648804,413.771210 141.079254,413.524475 139.674728,413.894073 
	C138.602203,414.176331 137.207153,415.062408 136.869141,416.006836 
	C134.814575,421.747131 133.021942,427.581207 131.062759,433.628082 
	C215.226837,433.628082 298.750580,433.628082 382.855988,433.628082 
	C381.109772,428.152740 379.296173,423.169647 377.970123,418.060089 
	C377.090424,414.670441 375.356384,413.727325 371.962830,413.763092 
	C357.143524,413.919373 342.321259,413.792969 326.500031,413.769409 
z"/>
<path fill="#D47D49" opacity="1.000000" stroke="none" 
	d="
M481.993378,341.052368 
	C480.168762,341.147766 478.344147,341.326508 476.519531,341.326660 
	C328.390839,341.339508 180.262161,341.338806 32.133469,341.334625 
	C30.468117,341.334564 28.795759,341.363617 27.138659,341.230194 
	C20.905527,340.728302 16.724148,336.601654 16.137411,330.366241 
	C15.997411,328.878418 16.064363,327.369537 16.064323,325.870361 
	C16.061701,227.895477 16.061239,129.920609 16.062975,31.945728 
	C16.063194,19.544842 19.657349,15.994080 32.193932,15.994847 
	C181.822144,16.004011 331.450348,16.014063 481.710571,16.408472 
	C483.235199,20.961035 484.900940,25.127874 484.907043,29.297142 
	C485.052704,128.924911 485.058044,228.553009 484.892242,328.180725 
	C484.885101,332.472870 483.002380,336.761902 481.993378,341.052368 
M153.992874,39.437603 
	C152.896408,34.204323 149.357422,32.764305 144.422791,32.776848 
	C112.267349,32.858582 80.111542,32.785252 47.955978,32.836128 
	C37.324543,32.852947 31.823452,38.246387 31.819088,48.749767 
	C31.783089,135.386749 31.784826,222.023743 31.820711,308.660736 
	C31.825006,319.031647 37.504597,324.615326 47.964333,324.736176 
	C55.793941,324.826630 63.625427,324.755493 71.456078,324.755493 
	C202.411224,324.755554 333.366394,324.757904 464.321533,324.751465 
	C476.479034,324.750854 482.184814,319.573761 482.187866,308.381012 
	C482.211609,221.910629 482.211121,135.440231 482.189087,48.969852 
	C482.186401,38.405178 476.747986,32.842606 466.259583,32.838715 
	C371.958557,32.803719 277.657501,32.836830 183.356506,32.773838 
	C178.007874,32.770267 174.799103,34.859818 172.939377,40.166592 
	C166.681625,40.172222 160.423874,40.177849 153.992874,39.437603 
z"/>
<path fill="#9C5427" opacity="1.000000" stroke="none" 
	d="
M327.000061,413.769287 
	C342.321259,413.792969 357.143524,413.919373 371.962830,413.763092 
	C375.356384,413.727325 377.090424,414.670441 377.970123,418.060089 
	C379.296173,423.169647 381.109772,428.152740 382.855988,433.628082 
	C298.750580,433.628082 215.226837,433.628082 131.062759,433.628082 
	C133.021942,427.581207 134.814575,421.747131 136.869141,416.006836 
	C137.207153,415.062408 138.602203,414.176331 139.674728,413.894073 
	C141.079254,413.524475 142.648804,413.771210 144.147369,413.771149 
	C204.931595,413.769287 265.715820,413.769501 327.000061,413.769287 
z"/>
<path fill="#C66C36" opacity="1.000000" stroke="none" 
	d="
M482.428040,341.155212 
	C483.002380,336.761902 484.885101,332.472870 484.892242,328.180725 
	C485.058044,228.553009 485.052704,128.924911 484.907043,29.297142 
	C484.900940,25.127874 483.235199,20.961035 482.175171,16.477818 
	C493.584778,15.577861 497.929962,19.646013 497.930542,31.134991 
	C497.935608,129.546249 497.935974,227.957520 497.930542,326.368774 
	C497.929932,337.439056 493.936279,341.364105 482.428040,341.155212 
z"/>
<path fill="#C66C36" opacity="1.000000" stroke="none" 
	d="
M424.980743,496.868805 
	C420.192535,495.801178 417.812866,492.262726 416.421875,488.031677 
	C415.004333,483.719879 412.489929,481.350739 407.778900,481.234436 
	C406.807343,481.210449 405.431091,479.850250 405.005798,478.797211 
	C403.792358,475.792755 403.077606,472.591217 401.970734,469.538239 
	C400.695679,466.021240 399.151276,463.095886 403.423553,459.831329 
	C405.067383,458.575256 404.998169,453.551819 404.114227,450.747803 
	C394.738739,421.007385 385.040771,391.368652 375.437531,361.699982 
	C375.182373,360.911743 374.994049,360.101868 374.811829,358.603882 
	C374.928864,357.451019 375.008667,356.996307 375.088470,356.541626 
	C379.062958,356.497467 383.037415,356.453308 387.509338,356.863953 
	C400.133881,394.697876 412.092529,432.133087 424.506500,469.416687 
	C427.610168,478.738068 429.793579,487.622925 424.980743,496.868805 
z"/>
<path fill="#AA5D2D" opacity="1.000000" stroke="none" 
	d="
M425.318665,497.079681 
	C429.793579,487.622925 427.610168,478.738068 424.506500,469.416687 
	C412.092529,432.133087 400.133881,394.697876 387.952148,356.976013 
	C401.336761,355.221954 401.357605,355.215179 405.450439,367.840057 
	C417.401825,404.705597 429.349091,441.572510 441.263550,478.449982 
	C443.673279,485.908569 442.407990,491.348877 437.395905,495.108032 
	C433.889282,497.738007 429.990662,498.830597 425.318665,497.079681 
z"/>
<path fill="#C66C35" opacity="1.000000" stroke="none" 
	d="
M76.864891,495.087891 
	C71.363770,490.463989 70.215904,486.266357 72.650185,478.699768 
	C79.561066,457.218445 86.528603,435.755310 93.487068,414.289307 
	C99.217743,396.610870 105.099548,378.979553 110.604980,361.231384 
	C111.808899,357.350250 113.488678,355.710449 117.537498,356.261566 
	C119.987747,356.595093 122.514481,356.366730 125.462639,356.842407 
	C125.750664,358.271576 125.701195,359.287506 125.398125,360.221161 
	C111.984581,401.543579 98.667900,442.898499 84.930176,484.113037 
	C83.563904,488.212036 79.615097,491.450195 76.864891,495.087891 
z"/>
<path fill="#AA5D2D" opacity="1.000000" stroke="none" 
	d="
M77.094620,495.372375 
	C79.615097,491.450195 83.563904,488.212036 84.930176,484.113037 
	C98.667900,442.898499 111.984581,401.543579 125.398125,360.221161 
	C125.701195,359.287506 125.750664,358.271576 125.911499,356.932251 
	C130.367416,356.570526 134.830246,356.570526 139.856506,356.570526 
	C139.483185,358.164520 139.260269,359.560425 138.829941,360.889160 
	C125.219719,402.915039 111.612000,444.941772 97.945961,486.949524 
	C94.574486,497.313019 86.833122,500.508667 77.094620,495.372375 
z"/>
<path fill="#AA5D2D" opacity="1.000000" stroke="none" 
	d="
M374.798523,356.532776 
	C375.008667,356.996307 374.928864,357.451019 374.752991,358.240479 
	C374.607483,357.891510 374.558014,357.207703 374.798523,356.532776 
z"/>
<path fill="#91DDB6" opacity="1.000000" stroke="none" 
	d="
M154.166122,40.183479 
	C160.423874,40.177849 166.681625,40.172222 173.474792,40.525524 
	C176.070175,46.821091 177.617905,47.824596 184.885712,47.824898 
	C272.758942,47.828537 360.632202,47.825722 448.505432,47.836304 
	C450.663147,47.836563 452.820892,47.971249 454.985779,48.509129 
	C454.970001,135.820251 454.947083,222.665466 454.468994,309.604370 
	C318.445709,309.698029 182.877548,309.698029 47.143112,309.698029 
	C47.143112,222.176117 47.143112,135.157761 47.143112,47.827271 
	C49.277809,47.827271 51.085201,47.827271 52.892593,47.827271 
	C83.214584,47.827232 113.536583,47.836311 143.858566,47.820133 
	C150.612305,47.816532 152.504807,46.372223 154.166122,40.183479 
M217.163101,159.584702 
	C215.959564,161.826309 213.741562,164.054245 213.711121,166.311676 
	C213.439453,186.470749 213.382645,206.638321 213.774292,226.793457 
	C213.822342,229.265564 216.344742,232.687347 218.652420,233.909683 
	C223.427155,236.438797 228.347916,232.527191 228.483994,226.384644 
	C228.694321,216.890869 228.332245,207.381821 228.654587,197.894257 
	C228.816391,193.132095 229.326965,188.198746 230.793625,183.706467 
	C233.041275,176.822113 238.642609,173.689209 245.052902,174.599152 
	C250.000061,175.301407 252.709564,178.277161 253.129807,186.118820 
	C253.824371,199.078857 253.719162,212.082291 253.921783,225.067902 
	C254.018143,231.242279 256.822327,234.786255 261.585938,234.640594 
	C266.147949,234.501099 268.911926,231.013702 268.935303,225.167831 
	C268.980011,214.003296 268.884186,202.837646 269.012573,191.674377 
	C269.044739,188.878113 269.357208,185.985123 270.149872,183.317551 
	C272.023926,177.010956 276.695496,174.369247 284.178802,174.926117 
	C289.808319,175.345047 292.158081,177.849014 293.132019,184.914627 
	C293.562225,188.035538 293.726715,191.213242 293.746857,194.366867 
	C293.815979,205.197617 293.675873,216.030243 293.807495,226.859833 
	C293.864502,231.550781 297.028809,234.639206 301.182465,234.628448 
	C305.087280,234.618332 308.615723,231.681854 308.608124,227.340744 
	C308.581299,212.027573 308.985413,196.646149 307.683228,181.422592 
	C306.498199,167.569016 296.712463,160.119507 282.814575,159.806625 
	C274.797089,159.626114 267.933380,162.328217 262.121582,167.446152 
	C251.674118,157.438293 240.416382,157.757523 228.365540,163.233017 
	C225.857803,159.346054 222.501251,157.418381 217.163101,159.584702 
M81.190536,122.236290 
	C76.650497,122.986420 73.953209,125.442223 73.951111,130.250061 
	C73.937172,162.223114 73.910622,194.196228 73.977097,226.169144 
	C73.987488,231.170242 76.746567,234.020905 81.667389,234.065918 
	C95.154648,234.189301 108.643944,234.133179 122.132164,234.080505 
	C126.181175,234.064697 128.679230,231.844315 129.537445,227.966675 
	C130.585571,223.231018 126.906891,219.216522 121.276268,219.155090 
	C110.662933,219.039291 100.047432,219.121674 89.275238,219.121674 
	C89.275238,207.814697 89.275238,196.945099 89.275238,185.824356 
	C98.408875,185.824356 107.217445,185.843338 116.025795,185.807434 
	C117.677505,185.800705 119.392303,185.817032 120.966911,185.401642 
	C124.858101,184.375153 126.982086,181.559830 126.602905,177.659561 
	C126.178780,173.296875 123.408447,170.839783 118.845222,170.832611 
	C109.060707,170.817245 99.276154,170.827896 89.223892,170.827896 
	C89.223892,159.478104 89.223892,148.600235 89.223892,137.257935 
	C91.286453,137.257935 93.079201,137.261444 94.871933,137.257355 
	C104.030327,137.236435 113.189651,137.283524 122.346695,137.160721 
	C126.683853,137.102585 129.237534,134.479553 129.615494,130.373123 
	C129.974869,126.468513 127.883163,123.656075 123.981041,122.635384 
	C122.402397,122.222458 120.692169,122.197823 119.041344,122.193871 
	C106.718483,122.164391 94.395508,122.184410 81.190536,122.236290 
M386.288544,213.263702 
	C382.136993,210.444626 378.814728,211.649582 375.083984,214.640961 
	C372.111481,217.024384 368.333496,219.148315 364.646088,219.749390 
	C355.190826,221.290649 346.001984,215.807434 341.806671,207.110367 
	C337.706512,198.610565 339.253448,188.444199 345.686310,181.613541 
	C353.244476,173.587997 363.759979,172.186386 374.397491,177.786758 
	C379.834900,180.649414 384.548157,179.326035 386.379242,174.422516 
	C387.827545,170.544098 386.126526,167.163620 381.306915,164.342072 
	C363.805939,154.096451 340.902679,159.887589 330.152588,177.276550 
	C319.306763,194.820374 324.575653,217.974670 341.932922,229.045715 
	C356.485107,238.327591 375.397797,236.694199 385.970215,225.294937 
	C389.359283,221.640793 390.334137,217.906830 386.288544,213.263702 
M439.919373,175.917374 
	C437.276886,167.325592 429.556702,171.041458 423.384430,169.554031 
	C426.072113,165.784973 428.665283,162.569962 430.781616,159.066879 
	C433.087708,155.249695 435.533508,151.353928 436.892578,147.159988 
	C440.187225,136.993103 434.948029,126.972145 425.065674,123.444328 
	C415.374359,119.984703 404.770966,124.709846 400.670868,134.315216 
	C398.296539,139.877594 399.467865,144.272095 403.853607,146.256134 
	C408.106354,148.180054 411.443573,146.426651 414.232635,140.806229 
	C414.454285,140.359604 414.598907,139.640808 414.939880,139.526230 
	C416.793243,138.903259 419.133331,137.526993 420.457642,138.166504 
	C421.716003,138.774185 422.815063,141.779831 422.406952,143.310547 
	C421.705322,145.942047 419.953918,148.371262 418.331970,150.665359 
	C413.238037,157.870468 407.813812,164.847733 402.872742,172.153488 
	C398.610413,178.455551 401.994598,184.752518 409.620880,184.954651 
	C416.947845,185.148865 424.284973,185.082306 431.615509,184.978287 
	C437.176117,184.899353 439.396729,182.595963 439.919373,175.917374 
M175.447495,217.356705 
	C178.433701,217.351501 181.423416,217.436493 184.405350,217.320847 
	C189.433167,217.125870 192.617218,214.167572 192.602234,209.868668 
	C192.587433,205.620621 189.380051,202.468369 184.365005,202.376831 
	C175.243408,202.210373 166.114807,202.211639 156.992828,202.364609 
	C151.577927,202.455414 148.493454,205.548508 148.647430,210.166321 
	C148.795364,214.601883 151.743530,217.219727 157.043228,217.323547 
	C162.847641,217.437256 168.655914,217.354050 175.447495,217.356705 
M150.190277,178.524536 
	C146.824966,185.556549 149.654968,190.598862 157.258118,190.726929 
	C166.234558,190.878128 175.216751,190.848831 184.194061,190.724487 
	C189.217453,190.654907 192.503891,187.608658 192.612503,183.366409 
	C192.727509,178.873871 189.446030,175.830292 184.037292,175.768478 
	C175.059464,175.665878 166.075882,175.601440 157.103348,175.842377 
	C154.960159,175.899918 152.850998,177.225082 150.190277,178.524536 
z"/>
<path fill="#030403" opacity="1.000000" stroke="none" 
	d="
M454.978607,48.043232 
	C452.820892,47.971249 450.663147,47.836563 448.505432,47.836304 
	C360.632202,47.825722 272.758942,47.828537 184.885712,47.824898 
	C177.617905,47.824596 176.070175,46.821091 173.933960,40.534386 
	C174.799103,34.859818 178.007874,32.770267 183.356506,32.773838 
	C277.657501,32.836830 371.958557,32.803719 466.259583,32.838715 
	C476.747986,32.842606 482.186401,38.405178 482.189087,48.969852 
	C482.211121,135.440231 482.211609,221.910629 482.187866,308.381012 
	C482.184814,319.573761 476.479034,324.750854 464.321533,324.751465 
	C333.366394,324.757904 202.411224,324.755554 71.456078,324.755493 
	C63.625427,324.755493 55.793941,324.826630 47.964333,324.736176 
	C37.504597,324.615326 31.825006,319.031647 31.820711,308.660736 
	C31.784826,222.023743 31.783089,135.386749 31.819088,48.749767 
	C31.823452,38.246387 37.324543,32.852947 47.955978,32.836128 
	C80.111542,32.785252 112.267349,32.858582 144.422791,32.776848 
	C149.357422,32.764305 152.896408,34.204323 154.079498,39.810539 
	C152.504807,46.372223 150.612305,47.816532 143.858566,47.820133 
	C113.536583,47.836311 83.214584,47.827232 52.892593,47.827271 
	C51.085201,47.827271 49.277809,47.827271 47.143112,47.827271 
	C47.143112,135.157761 47.143112,222.176117 47.143112,309.698029 
	C182.877548,309.698029 318.445709,309.698029 454.926270,309.703552 
	C459.453827,309.709076 463.069031,309.709076 466.806519,309.709076 
	C466.806519,222.137939 466.806519,135.084229 466.806519,48.043232 
	C462.599091,48.043232 458.788849,48.043232 454.978607,48.043232 
z"/>
<path fill="#030403" opacity="1.000000" stroke="none" 
	d="
M217.480896,159.388000 
	C222.501251,157.418381 225.857803,159.346054 228.365540,163.233017 
	C240.416382,157.757523 251.674118,157.438293 262.121582,167.446152 
	C267.933380,162.328217 274.797089,159.626114 282.814575,159.806625 
	C296.712463,160.119507 306.498199,167.569016 307.683228,181.422592 
	C308.985413,196.646149 308.581299,212.027573 308.608124,227.340744 
	C308.615723,231.681854 305.087280,234.618332 301.182465,234.628448 
	C297.028809,234.639206 293.864502,231.550781 293.807495,226.859833 
	C293.675873,216.030243 293.815979,205.197617 293.746857,194.366867 
	C293.726715,191.213242 293.562225,188.035538 293.132019,184.914627 
	C292.158081,177.849014 289.808319,175.345047 284.178802,174.926117 
	C276.695496,174.369247 272.023926,177.010956 270.149872,183.317551 
	C269.357208,185.985123 269.044739,188.878113 269.012573,191.674377 
	C268.884186,202.837646 268.980011,214.003296 268.935303,225.167831 
	C268.911926,231.013702 266.147949,234.501099 261.585938,234.640594 
	C256.822327,234.786255 254.018143,231.242279 253.921783,225.067902 
	C253.719162,212.082291 253.824371,199.078857 253.129807,186.118820 
	C252.709564,178.277161 250.000061,175.301407 245.052902,174.599152 
	C238.642609,173.689209 233.041275,176.822113 230.793625,183.706467 
	C229.326965,188.198746 228.816391,193.132095 228.654587,197.894257 
	C228.332245,207.381821 228.694321,216.890869 228.483994,226.384644 
	C228.347916,232.527191 223.427155,236.438797 218.652420,233.909683 
	C216.344742,232.687347 213.822342,229.265564 213.774292,226.793457 
	C213.382645,206.638321 213.439453,186.470749 213.711121,166.311676 
	C213.741562,164.054245 215.959564,161.826309 217.480896,159.388000 
z"/>
<path fill="#020302" opacity="1.000000" stroke="none" 
	d="
M81.631546,122.212601 
	C94.395508,122.184410 106.718483,122.164391 119.041344,122.193871 
	C120.692169,122.197823 122.402397,122.222458 123.981041,122.635384 
	C127.883163,123.656075 129.974869,126.468513 129.615494,130.373123 
	C129.237534,134.479553 126.683853,137.102585 122.346695,137.160721 
	C113.189651,137.283524 104.030327,137.236435 94.871933,137.257355 
	C93.079201,137.261444 91.286453,137.257935 89.223892,137.257935 
	C89.223892,148.600235 89.223892,159.478104 89.223892,170.827896 
	C99.276154,170.827896 109.060707,170.817245 118.845222,170.832611 
	C123.408447,170.839783 126.178780,173.296875 126.602905,177.659561 
	C126.982086,181.559830 124.858101,184.375153 120.966911,185.401642 
	C119.392303,185.817032 117.677505,185.800705 116.025795,185.807434 
	C107.217445,185.843338 98.408875,185.824356 89.275238,185.824356 
	C89.275238,196.945099 89.275238,207.814697 89.275238,219.121674 
	C100.047432,219.121674 110.662933,219.039291 121.276268,219.155090 
	C126.906891,219.216522 130.585571,223.231018 129.537445,227.966675 
	C128.679230,231.844315 126.181175,234.064697 122.132164,234.080505 
	C108.643944,234.133179 95.154648,234.189301 81.667389,234.065918 
	C76.746567,234.020905 73.987488,231.170242 73.977097,226.169144 
	C73.910622,194.196228 73.937172,162.223114 73.951111,130.250061 
	C73.953209,125.442223 76.650497,122.986420 81.631546,122.212601 
z"/>
<path fill="#6CCD9C" opacity="1.000000" stroke="none" 
	d="
M454.985779,48.509129 
	C458.788849,48.043232 462.599091,48.043232 466.806519,48.043232 
	C466.806519,135.084229 466.806519,222.137939 466.806519,309.709076 
	C463.069031,309.709076 459.453827,309.709076 455.381378,309.609863 
	C454.947083,222.665466 454.970001,135.820251 454.985779,48.509129 
z"/>
<path fill="#020403" opacity="1.000000" stroke="none" 
	d="
M386.560913,213.524628 
	C390.334137,217.906830 389.359283,221.640793 385.970215,225.294937 
	C375.397797,236.694199 356.485107,238.327591 341.932922,229.045715 
	C324.575653,217.974670 319.306763,194.820374 330.152588,177.276550 
	C340.902679,159.887589 363.805939,154.096451 381.306915,164.342072 
	C386.126526,167.163620 387.827545,170.544098 386.379242,174.422516 
	C384.548157,179.326035 379.834900,180.649414 374.397491,177.786758 
	C363.759979,172.186386 353.244476,173.587997 345.686310,181.613541 
	C339.253448,188.444199 337.706512,198.610565 341.806671,207.110367 
	C346.001984,215.807434 355.190826,221.290649 364.646088,219.749390 
	C368.333496,219.148315 372.111481,217.024384 375.083984,214.640961 
	C378.814728,211.649582 382.136993,210.444626 386.560913,213.524628 
z"/>
<path fill="#020303" opacity="1.000000" stroke="none" 
	d="
M439.962280,176.313477 
	C439.396729,182.595963 437.176117,184.899353 431.615509,184.978287 
	C424.284973,185.082306 416.947845,185.148865 409.620880,184.954651 
	C401.994598,184.752518 398.610413,178.455551 402.872742,172.153488 
	C407.813812,164.847733 413.238037,157.870468 418.331970,150.665359 
	C419.953918,148.371262 421.705322,145.942047 422.406952,143.310547 
	C422.815063,141.779831 421.716003,138.774185 420.457642,138.166504 
	C419.133331,137.526993 416.793243,138.903259 414.939880,139.526230 
	C414.598907,139.640808 414.454285,140.359604 414.232635,140.806229 
	C411.443573,146.426651 408.106354,148.180054 403.853607,146.256134 
	C399.467865,144.272095 398.296539,139.877594 400.670868,134.315216 
	C404.770966,124.709846 415.374359,119.984703 425.065674,123.444328 
	C434.948029,126.972145 440.187225,136.993103 436.892578,147.159988 
	C435.533508,151.353928 433.087708,155.249695 430.781616,159.066879 
	C428.665283,162.569962 426.072113,165.784973 423.384430,169.554031 
	C429.556702,171.041458 437.276886,167.325592 439.962280,176.313477 
z"/>
<path fill="#040605" opacity="1.000000" stroke="none" 
	d="
M174.954987,217.356689 
	C168.655914,217.354050 162.847641,217.437256 157.043228,217.323547 
	C151.743530,217.219727 148.795364,214.601883 148.647430,210.166321 
	C148.493454,205.548508 151.577927,202.455414 156.992828,202.364609 
	C166.114807,202.211639 175.243408,202.210373 184.365005,202.376831 
	C189.380051,202.468369 192.587433,205.620621 192.602234,209.868668 
	C192.617218,214.167572 189.433167,217.125870 184.405350,217.320847 
	C181.423416,217.436493 178.433701,217.351501 174.954987,217.356689 
z"/>
<path fill="#040504" opacity="1.000000" stroke="none" 
	d="
M150.458237,178.245880 
	C152.850998,177.225082 154.960159,175.899918 157.103348,175.842377 
	C166.075882,175.601440 175.059464,175.665878 184.037292,175.768478 
	C189.446030,175.830292 192.727509,178.873871 192.612503,183.366409 
	C192.503891,187.608658 189.217453,190.654907 184.194061,190.724487 
	C175.216751,190.848831 166.234558,190.878128 157.258118,190.726929 
	C149.654968,190.598862 146.824966,185.556549 150.458237,178.245880 
z"/>
</svg>